<svg width="64" height="64" viewBox="0 0 64 64" fill="none" xmlns="http://www.w3.org/2000/svg">
<rect width="64" height="64" fill="#66BC29"/>
<path d="M27.0733 47.2133V34.1067C27.0733 33.2133 26.9667 29.78 26.92 29.0467C26.8543 28.3832 26.6151 27.7488 26.2266 27.207C25.8381 26.6652 25.3139 26.2351 24.7067 25.96H31.0867V47.2133H27.0733Z" fill="#F9FAFB"/>
<path d="M26.2067 20.12C26.2049 19.7842 26.2697 19.4514 26.3974 19.1408C26.5251 18.8302 26.7131 18.548 26.9506 18.3106C27.188 18.0731 27.4702 17.8851 27.7808 17.7574C28.0914 17.6297 28.4242 17.5649 28.76 17.5667C29.0928 17.5666 29.4224 17.633 29.7292 17.7619C30.036 17.8909 30.314 18.0798 30.5469 18.3176C30.7798 18.5555 30.9628 18.8374 31.0852 19.1469C31.2077 19.4564 31.2671 19.7872 31.26 20.12C31.269 20.7697 31.0212 21.3967 30.5706 21.8648C30.12 22.3329 29.5029 22.6043 28.8533 22.62C28.5147 22.6325 28.177 22.5774 27.8598 22.458C27.5427 22.3386 27.2525 22.1573 27.0062 21.9246C26.7598 21.6919 26.5623 21.4125 26.425 21.1027C26.2877 20.7928 26.2135 20.4588 26.2067 20.12Z" fill="#F9FAFB"/>
<path d="M9.34001 47.2133H15.46C14.5259 46.6585 13.8409 45.7659 13.5467 44.72C13.3531 43.0362 13.2773 41.341 13.32 39.6467V27.2467H17.4133V25.9533H13.32V24.0267C13.32 19.2667 14.9533 17.32 17.8 17.32C20.6467 17.32 21.4333 20.3067 21.4333 20.3067L24.1867 18.7133C24.1867 18.7133 22.4 16 17.7333 16C13.0667 16 9.33334 19.0133 9.33334 24.5667L9.34001 47.2133Z" fill="#F9FAFB"/>
<path d="M51.7734 30.28C50.7267 27.8667 49.1067 27.0733 47.66 27.0733C44.06 27.0733 41.0667 30.1133 41.0667 36.1134C41.0667 41.9267 43.4467 45.3734 48.3067 45.3734C50.3067 45.3734 52.1267 44.5 53.7934 42.7067L54.72 43.7734C53.779 44.9296 52.5884 45.8577 51.2376 46.4881C49.8867 47.1185 48.4106 47.4348 46.92 47.4134C40.3667 47.4134 36.2534 43.1534 36.2534 37.1067C36.2534 30.5134 41.02 25.4133 47.7 25.7733C50.5534 25.9333 53.28 27.1933 54.48 28.5867L51.7734 30.28Z" fill="#F9FAFB"/>
</svg>
