<svg viewBox="0 0 96 48" fill="none" xmlns="http://www.w3.org/2000/svg">
<path d="M0.515167 15.5603C0.515167 15.5603 29.4587 14.8844 45.4898 18.9504C50.4254 20.1746 50.9185 23.2268 50.9683 26.0132C51.0143 26.9527 51.116 27.8886 51.273 28.8161C50.8887 27.2554 50.1181 25.8164 49.032 24.6316C47.9459 23.4467 46.5792 22.5541 45.0577 22.0358C27.5753 16.0865 0.515167 15.5603 0.515167 15.5603Z" fill="#1F2937"/>
<path d="M56.1311 12.5745C57.4716 11.3669 60.0474 6.48115 50.4698 7.3453C26.4951 8.92957 0 12.6908 0 12.6908C0 12.6908 37.2084 8.81325 50.9628 10.4418C55.7765 10.9958 54.2864 14.7238 54.0649 15.2113C54.6589 14.2787 55.3476 13.41 56.12 12.6188L56.1311 12.5745Z" fill="#1F2937"/>
<path d="M37.3801 12.6687C25.2986 12.2809 0.227112 14.0923 0.227112 14.0923C0.227112 14.0923 25.991 12.8072 45.3846 15.7541C50.1983 16.4133 51.417 18.7842 51.5666 20.7396C51.8285 19.7745 52.1618 18.8302 52.5637 17.9145C53.7436 14.0425 49.6555 12.436 37.3801 12.6687Z" fill="#1F2937"/>
<path d="M51.5943 30.2619C51.5943 30.2619 53.5054 37.0532 62.3131 39.0142C76.1063 42.2215 86.6312 33.9179 86.6312 33.9179C85.06 36.9898 82.6843 39.5775 79.7575 41.4048C76.8307 43.2321 73.4627 44.2304 70.0129 44.2933C54.4748 44.3708 51.5943 30.2619 51.5943 30.2619Z" fill="#1F2937"/>
<path d="M56.1864 12.5246C55.3645 13.3484 54.6362 14.2606 54.015 15.2445C52.8683 18.2413 55.9926 20.7341 61.039 20.9612C77.2197 20.8504 84.2658 12.785 84.2658 12.785L87.6449 0C87.6449 0 83.5623 7.80505 73.3642 12.1867C65.3653 15.8594 57.1614 16.1807 56.0757 14.4025C55.8876 14.12 55.7967 13.7839 55.8167 13.445C55.8367 13.1062 55.9665 12.7831 56.1864 12.5246Z" fill="#1F2937"/>
<path d="M52.5747 17.8425C51.982 20.1857 51.4669 27.2595 65.4816 26.7056C83.9889 25.3373 95.7435 11.8765 95.7435 11.8765L90.8965 24.0245C90.8965 24.0245 79.3911 35.7182 62.7728 33.5191C51.3505 31.9736 51.0403 24.102 51.0403 24.102C51.1325 21.9345 51.6541 19.8069 52.5747 17.8425Z" fill="#1F2937"/>
<path d="M18.8064 47.8329V36.9424C18.8064 36.2001 18.7177 33.3473 18.679 32.738C18.6243 32.1867 18.4257 31.6595 18.1028 31.2093C17.78 30.7592 17.3445 30.4018 16.8399 30.1732H22.1411V47.8329H18.8064Z" fill="#1F2937"/>
<path d="M18.0862 25.3207C18.0848 25.0417 18.1386 24.7652 18.2447 24.5071C18.3508 24.249 18.5071 24.0146 18.7044 23.8173C18.9017 23.62 19.1361 23.4637 19.3942 23.3576C19.6523 23.2515 19.9288 23.1977 20.2078 23.1991C20.4844 23.1991 20.7582 23.2542 21.0132 23.3614C21.2681 23.4685 21.4991 23.6255 21.6926 23.8231C21.8861 24.0207 22.0382 24.255 22.1399 24.5122C22.2417 24.7693 22.291 25.0442 22.2851 25.3207C22.2926 25.8606 22.0867 26.3815 21.7123 26.7705C21.3379 27.1594 20.8251 27.3849 20.2854 27.398C20.004 27.4084 19.7234 27.3626 19.4599 27.2634C19.1964 27.1642 18.9552 27.0135 18.7506 26.8202C18.5459 26.6268 18.3817 26.3947 18.2677 26.1372C18.1536 25.8798 18.0919 25.6022 18.0862 25.3207Z" fill="#1F2937"/>
<path d="M4.07149 47.8329H9.15669C8.38054 47.3719 7.81133 46.6302 7.56687 45.7612C7.40601 44.3621 7.34307 42.9535 7.37853 41.5457V31.2424H10.7797V30.1677H7.37853V28.5668C7.37853 24.6117 8.73569 22.9941 11.101 22.9941C13.4664 22.9941 14.12 25.4758 14.12 25.4758L16.4078 24.1519C16.4078 24.1519 14.9232 21.8973 11.0456 21.8973C7.16803 21.8973 4.06595 24.4012 4.06595 29.0155L4.07149 47.8329Z" fill="#1F2937"/>
<path d="M39.33 33.7628C38.4603 31.7575 37.1142 31.0983 35.9121 31.0983C32.9209 31.0983 30.4336 33.6243 30.4336 38.6098C30.4336 43.4402 32.4112 46.3041 36.4495 46.3041C38.1113 46.3041 39.6236 45.5784 41.0084 44.0883L41.7784 44.9746C40.9965 45.9353 40.0072 46.7065 38.8848 47.2303C37.7623 47.7541 36.5358 48.017 35.2973 47.9991C29.852 47.9991 26.4342 44.4594 26.4342 39.4352C26.4342 33.9567 30.3949 29.719 35.9454 30.0181C38.3163 30.1511 40.5819 31.198 41.579 32.3558L39.33 33.7628Z" fill="#1F2937"/>
</svg>
